{
	"patcher" : 	{
		"fileversion" : 1,
		"appversion" : 		{
			"major" : 5,
			"minor" : 1,
			"revision" : 9
		}
,
		"rect" : [ 216.0, 44.0, 1117.0, 814.0 ],
		"bglocked" : 0,
		"defrect" : [ 216.0, 44.0, 1117.0, 814.0 ],
		"openrect" : [ 0.0, 0.0, 0.0, 0.0 ],
		"openinpresentation" : 0,
		"default_fontsize" : 9.0,
		"default_fontface" : 0,
		"default_fontname" : "Arial",
		"gridonopen" : 0,
		"gridsize" : [ 15.0, 15.0 ],
		"gridsnaponopen" : 0,
		"toolbarvisible" : 1,
		"boxanimatetime" : 200,
		"imprint" : 0,
		"enablehscroll" : 1,
		"enablevscroll" : 1,
		"devicewidth" : 0.0,
		"boxes" : [ 			{
				"box" : 				{
					"maxclass" : "bpatcher",
					"varname" : "1-SoundDB_namedUnit",
					"patching_rect" : [ 0.0, 0.0, 549.0, 18.0 ],
					"numinlets" : 0,
					"name" : "SoundDB_tagNamedUnit.maxpat",
					"id" : "obj-786",
					"numoutlets" : 0,
					"args" : [ "#1", 1 ]
				}

			}
, 			{
				"box" : 				{
					"maxclass" : "bpatcher",
					"varname" : "2-SoundDB_namedUnit",
					"patching_rect" : [ 0.0, 19.0, 549.0, 18.0 ],
					"numinlets" : 0,
					"name" : "SoundDB_tagNamedUnit.maxpat",
					"id" : "obj-788",
					"numoutlets" : 0,
					"args" : [ "#1", 2 ]
				}

			}
, 			{
				"box" : 				{
					"maxclass" : "bpatcher",
					"varname" : "3-SoundDB_namedUnit",
					"patching_rect" : [ 0.0, 38.0, 549.0, 18.0 ],
					"numinlets" : 0,
					"name" : "SoundDB_tagNamedUnit.maxpat",
					"id" : "obj-790",
					"numoutlets" : 0,
					"args" : [ "#1", 3 ]
				}

			}
, 			{
				"box" : 				{
					"maxclass" : "bpatcher",
					"varname" : "4-SoundDB_namedUnit",
					"patching_rect" : [ 0.0, 57.0, 549.0, 18.0 ],
					"numinlets" : 0,
					"name" : "SoundDB_tagNamedUnit.maxpat",
					"id" : "obj-792",
					"numoutlets" : 0,
					"args" : [ "#1", 4 ]
				}

			}
, 			{
				"box" : 				{
					"maxclass" : "bpatcher",
					"varname" : "5-SoundDB_namedUnit",
					"patching_rect" : [ 0.0, 76.0, 549.0, 18.0 ],
					"numinlets" : 0,
					"name" : "SoundDB_tagNamedUnit.maxpat",
					"id" : "obj-794",
					"numoutlets" : 0,
					"args" : [ "#1", 5 ]
				}

			}
, 			{
				"box" : 				{
					"maxclass" : "bpatcher",
					"varname" : "6-SoundDB_namedUnit",
					"patching_rect" : [ 0.0, 95.0, 549.0, 18.0 ],
					"numinlets" : 0,
					"name" : "SoundDB_tagNamedUnit.maxpat",
					"id" : "obj-796",
					"numoutlets" : 0,
					"args" : [ "#1", 6 ]
				}

			}
, 			{
				"box" : 				{
					"maxclass" : "bpatcher",
					"varname" : "7-SoundDB_namedUnit",
					"patching_rect" : [ 0.0, 114.0, 549.0, 18.0 ],
					"numinlets" : 0,
					"name" : "SoundDB_tagNamedUnit.maxpat",
					"id" : "obj-798",
					"numoutlets" : 0,
					"args" : [ "#1", 7 ]
				}

			}
, 			{
				"box" : 				{
					"maxclass" : "bpatcher",
					"varname" : "8-SoundDB_namedUnit",
					"patching_rect" : [ 0.0, 133.0, 549.0, 18.0 ],
					"numinlets" : 0,
					"name" : "SoundDB_tagNamedUnit.maxpat",
					"id" : "obj-800",
					"numoutlets" : 0,
					"args" : [ "#1", 8 ]
				}

			}
, 			{
				"box" : 				{
					"maxclass" : "bpatcher",
					"varname" : "9-SoundDB_namedUnit",
					"patching_rect" : [ 0.0, 152.0, 549.0, 18.0 ],
					"numinlets" : 0,
					"name" : "SoundDB_tagNamedUnit.maxpat",
					"id" : "obj-802",
					"numoutlets" : 0,
					"args" : [ "#1", 9 ]
				}

			}
, 			{
				"box" : 				{
					"maxclass" : "bpatcher",
					"varname" : "10-SoundDB_namedUnit",
					"patching_rect" : [ 0.0, 171.0, 549.0, 18.0 ],
					"numinlets" : 0,
					"name" : "SoundDB_tagNamedUnit.maxpat",
					"id" : "obj-804",
					"numoutlets" : 0,
					"args" : [ "#1", 10 ]
				}

			}
, 			{
				"box" : 				{
					"maxclass" : "bpatcher",
					"varname" : "11-SoundDB_namedUnit",
					"patching_rect" : [ 0.0, 190.0, 549.0, 18.0 ],
					"numinlets" : 0,
					"name" : "SoundDB_tagNamedUnit.maxpat",
					"id" : "obj-806",
					"numoutlets" : 0,
					"args" : [ "#1", 11 ]
				}

			}
, 			{
				"box" : 				{
					"maxclass" : "bpatcher",
					"varname" : "12-SoundDB_namedUnit",
					"patching_rect" : [ 0.0, 209.0, 549.0, 18.0 ],
					"numinlets" : 0,
					"name" : "SoundDB_tagNamedUnit.maxpat",
					"id" : "obj-808",
					"numoutlets" : 0,
					"args" : [ "#1", 12 ]
				}

			}
, 			{
				"box" : 				{
					"maxclass" : "bpatcher",
					"varname" : "13-SoundDB_namedUnit",
					"patching_rect" : [ 0.0, 228.0, 549.0, 18.0 ],
					"numinlets" : 0,
					"name" : "SoundDB_tagNamedUnit.maxpat",
					"id" : "obj-810",
					"numoutlets" : 0,
					"args" : [ "#1", 13 ]
				}

			}
, 			{
				"box" : 				{
					"maxclass" : "bpatcher",
					"varname" : "14-SoundDB_namedUnit",
					"patching_rect" : [ 0.0, 247.0, 549.0, 18.0 ],
					"numinlets" : 0,
					"name" : "SoundDB_tagNamedUnit.maxpat",
					"id" : "obj-812",
					"numoutlets" : 0,
					"args" : [ "#1", 14 ]
				}

			}
, 			{
				"box" : 				{
					"maxclass" : "bpatcher",
					"varname" : "15-SoundDB_namedUnit",
					"patching_rect" : [ 0.0, 266.0, 549.0, 18.0 ],
					"numinlets" : 0,
					"name" : "SoundDB_tagNamedUnit.maxpat",
					"id" : "obj-814",
					"numoutlets" : 0,
					"args" : [ "#1", 15 ]
				}

			}
, 			{
				"box" : 				{
					"maxclass" : "bpatcher",
					"varname" : "16-SoundDB_namedUnit",
					"patching_rect" : [ 0.0, 285.0, 549.0, 18.0 ],
					"numinlets" : 0,
					"name" : "SoundDB_tagNamedUnit.maxpat",
					"id" : "obj-816",
					"numoutlets" : 0,
					"args" : [ "#1", 16 ]
				}

			}
, 			{
				"box" : 				{
					"maxclass" : "bpatcher",
					"varname" : "17-SoundDB_namedUnit",
					"patching_rect" : [ 0.0, 304.0, 549.0, 18.0 ],
					"numinlets" : 0,
					"name" : "SoundDB_tagNamedUnit.maxpat",
					"id" : "obj-818",
					"numoutlets" : 0,
					"args" : [ "#1", 17 ]
				}

			}
, 			{
				"box" : 				{
					"maxclass" : "bpatcher",
					"varname" : "18-SoundDB_namedUnit",
					"patching_rect" : [ 0.0, 323.0, 549.0, 18.0 ],
					"numinlets" : 0,
					"name" : "SoundDB_tagNamedUnit.maxpat",
					"id" : "obj-820",
					"numoutlets" : 0,
					"args" : [ "#1", 18 ]
				}

			}
, 			{
				"box" : 				{
					"maxclass" : "bpatcher",
					"varname" : "19-SoundDB_namedUnit",
					"patching_rect" : [ 0.0, 342.0, 549.0, 18.0 ],
					"numinlets" : 0,
					"name" : "SoundDB_tagNamedUnit.maxpat",
					"id" : "obj-822",
					"numoutlets" : 0,
					"args" : [ "#1", 19 ]
				}

			}
, 			{
				"box" : 				{
					"maxclass" : "bpatcher",
					"varname" : "20-SoundDB_namedUnit",
					"patching_rect" : [ 0.0, 361.0, 549.0, 18.0 ],
					"numinlets" : 0,
					"name" : "SoundDB_tagNamedUnit.maxpat",
					"id" : "obj-824",
					"numoutlets" : 0,
					"args" : [ "#1", 20 ]
				}

			}
, 			{
				"box" : 				{
					"maxclass" : "bpatcher",
					"varname" : "21-SoundDB_namedUnit",
					"patching_rect" : [ 0.0, 380.0, 549.0, 18.0 ],
					"numinlets" : 0,
					"name" : "SoundDB_tagNamedUnit.maxpat",
					"id" : "obj-826",
					"numoutlets" : 0,
					"args" : [ "#1", 21 ]
				}

			}
, 			{
				"box" : 				{
					"maxclass" : "bpatcher",
					"varname" : "22-SoundDB_namedUnit",
					"patching_rect" : [ 0.0, 399.0, 549.0, 18.0 ],
					"numinlets" : 0,
					"name" : "SoundDB_tagNamedUnit.maxpat",
					"id" : "obj-828",
					"numoutlets" : 0,
					"args" : [ "#1", 22 ]
				}

			}
, 			{
				"box" : 				{
					"maxclass" : "bpatcher",
					"varname" : "23-SoundDB_namedUnit",
					"patching_rect" : [ 0.0, 418.0, 549.0, 18.0 ],
					"numinlets" : 0,
					"name" : "SoundDB_tagNamedUnit.maxpat",
					"id" : "obj-830",
					"numoutlets" : 0,
					"args" : [ "#1", 23 ]
				}

			}
, 			{
				"box" : 				{
					"maxclass" : "bpatcher",
					"varname" : "24-SoundDB_namedUnit",
					"patching_rect" : [ 0.0, 437.0, 549.0, 18.0 ],
					"numinlets" : 0,
					"name" : "SoundDB_tagNamedUnit.maxpat",
					"id" : "obj-832",
					"numoutlets" : 0,
					"args" : [ "#1", 24 ]
				}

			}
, 			{
				"box" : 				{
					"maxclass" : "bpatcher",
					"varname" : "25-SoundDB_namedUnit",
					"patching_rect" : [ 0.0, 456.0, 549.0, 18.0 ],
					"numinlets" : 0,
					"name" : "SoundDB_tagNamedUnit.maxpat",
					"id" : "obj-834",
					"numoutlets" : 0,
					"args" : [ "#1", 25 ]
				}

			}
, 			{
				"box" : 				{
					"maxclass" : "bpatcher",
					"varname" : "26-SoundDB_namedUnit",
					"patching_rect" : [ 0.0, 475.0, 549.0, 18.0 ],
					"numinlets" : 0,
					"name" : "SoundDB_tagNamedUnit.maxpat",
					"id" : "obj-836",
					"numoutlets" : 0,
					"args" : [ "#1", 26 ]
				}

			}
, 			{
				"box" : 				{
					"maxclass" : "bpatcher",
					"varname" : "27-SoundDB_namedUnit",
					"patching_rect" : [ 0.0, 494.0, 549.0, 18.0 ],
					"numinlets" : 0,
					"name" : "SoundDB_tagNamedUnit.maxpat",
					"id" : "obj-838",
					"numoutlets" : 0,
					"args" : [ "#1", 27 ]
				}

			}
, 			{
				"box" : 				{
					"maxclass" : "bpatcher",
					"varname" : "28-SoundDB_namedUnit",
					"patching_rect" : [ 0.0, 513.0, 549.0, 18.0 ],
					"numinlets" : 0,
					"name" : "SoundDB_tagNamedUnit.maxpat",
					"id" : "obj-840",
					"numoutlets" : 0,
					"args" : [ "#1", 28 ]
				}

			}
, 			{
				"box" : 				{
					"maxclass" : "bpatcher",
					"varname" : "29-SoundDB_namedUnit",
					"patching_rect" : [ 0.0, 532.0, 549.0, 18.0 ],
					"numinlets" : 0,
					"name" : "SoundDB_tagNamedUnit.maxpat",
					"id" : "obj-842",
					"numoutlets" : 0,
					"args" : [ "#1", 29 ]
				}

			}
, 			{
				"box" : 				{
					"maxclass" : "bpatcher",
					"varname" : "30-SoundDB_namedUnit",
					"patching_rect" : [ 0.0, 551.0, 549.0, 18.0 ],
					"numinlets" : 0,
					"name" : "SoundDB_tagNamedUnit.maxpat",
					"id" : "obj-844",
					"numoutlets" : 0,
					"args" : [ "#1", 30 ]
				}

			}
, 			{
				"box" : 				{
					"maxclass" : "bpatcher",
					"varname" : "31-SoundDB_namedUnit",
					"patching_rect" : [ 0.0, 570.0, 549.0, 18.0 ],
					"numinlets" : 0,
					"name" : "SoundDB_tagNamedUnit.maxpat",
					"id" : "obj-846",
					"numoutlets" : 0,
					"args" : [ "#1", 31 ]
				}

			}
, 			{
				"box" : 				{
					"maxclass" : "bpatcher",
					"varname" : "32-SoundDB_namedUnit",
					"patching_rect" : [ 0.0, 589.0, 549.0, 18.0 ],
					"numinlets" : 0,
					"name" : "SoundDB_tagNamedUnit.maxpat",
					"id" : "obj-848",
					"numoutlets" : 0,
					"args" : [ "#1", 32 ]
				}

			}
, 			{
				"box" : 				{
					"maxclass" : "bpatcher",
					"varname" : "33-SoundDB_namedUnit",
					"patching_rect" : [ 0.0, 608.0, 549.0, 18.0 ],
					"numinlets" : 0,
					"name" : "SoundDB_tagNamedUnit.maxpat",
					"id" : "obj-850",
					"numoutlets" : 0,
					"args" : [ "#1", 33 ]
				}

			}
, 			{
				"box" : 				{
					"maxclass" : "bpatcher",
					"varname" : "34-SoundDB_namedUnit",
					"patching_rect" : [ 0.0, 627.0, 549.0, 18.0 ],
					"numinlets" : 0,
					"name" : "SoundDB_tagNamedUnit.maxpat",
					"id" : "obj-852",
					"numoutlets" : 0,
					"args" : [ "#1", 34 ]
				}

			}
, 			{
				"box" : 				{
					"maxclass" : "bpatcher",
					"varname" : "35-SoundDB_namedUnit",
					"patching_rect" : [ 0.0, 646.0, 549.0, 18.0 ],
					"numinlets" : 0,
					"name" : "SoundDB_tagNamedUnit.maxpat",
					"id" : "obj-854",
					"numoutlets" : 0,
					"args" : [ "#1", 35 ]
				}

			}
, 			{
				"box" : 				{
					"maxclass" : "bpatcher",
					"varname" : "36-SoundDB_namedUnit",
					"patching_rect" : [ 0.0, 665.0, 549.0, 18.0 ],
					"numinlets" : 0,
					"name" : "SoundDB_tagNamedUnit.maxpat",
					"id" : "obj-856",
					"numoutlets" : 0,
					"args" : [ "#1", 36 ]
				}

			}
, 			{
				"box" : 				{
					"maxclass" : "bpatcher",
					"varname" : "37-SoundDB_namedUnit",
					"patching_rect" : [ 0.0, 684.0, 549.0, 18.0 ],
					"numinlets" : 0,
					"name" : "SoundDB_tagNamedUnit.maxpat",
					"id" : "obj-858",
					"numoutlets" : 0,
					"args" : [ "#1", 37 ]
				}

			}
, 			{
				"box" : 				{
					"maxclass" : "bpatcher",
					"varname" : "38-SoundDB_namedUnit",
					"patching_rect" : [ 0.0, 703.0, 549.0, 18.0 ],
					"numinlets" : 0,
					"name" : "SoundDB_tagNamedUnit.maxpat",
					"id" : "obj-860",
					"numoutlets" : 0,
					"args" : [ "#1", 38 ]
				}

			}
, 			{
				"box" : 				{
					"maxclass" : "bpatcher",
					"varname" : "39-SoundDB_namedUnit",
					"patching_rect" : [ 0.0, 722.0, 549.0, 18.0 ],
					"numinlets" : 0,
					"name" : "SoundDB_tagNamedUnit.maxpat",
					"id" : "obj-862",
					"numoutlets" : 0,
					"args" : [ "#1", 39 ]
				}

			}
, 			{
				"box" : 				{
					"maxclass" : "bpatcher",
					"varname" : "40-SoundDB_namedUnit",
					"patching_rect" : [ 0.0, 741.0, 549.0, 18.0 ],
					"numinlets" : 0,
					"name" : "SoundDB_tagNamedUnit.maxpat",
					"id" : "obj-864",
					"numoutlets" : 0,
					"args" : [ "#1", 40 ]
				}

			}
, 			{
				"box" : 				{
					"maxclass" : "bpatcher",
					"varname" : "41-SoundDB_namedUnit",
					"patching_rect" : [ 0.0, 760.0, 549.0, 18.0 ],
					"numinlets" : 0,
					"name" : "SoundDB_tagNamedUnit.maxpat",
					"id" : "obj-866",
					"numoutlets" : 0,
					"args" : [ "#1", 41 ]
				}

			}
, 			{
				"box" : 				{
					"maxclass" : "bpatcher",
					"varname" : "42-SoundDB_namedUnit",
					"patching_rect" : [ 0.0, 779.0, 549.0, 18.0 ],
					"numinlets" : 0,
					"name" : "SoundDB_tagNamedUnit.maxpat",
					"id" : "obj-868",
					"numoutlets" : 0,
					"args" : [ "#1", 42 ]
				}

			}
, 			{
				"box" : 				{
					"maxclass" : "bpatcher",
					"varname" : "43-SoundDB_namedUnit",
					"patching_rect" : [ 0.0, 798.0, 549.0, 18.0 ],
					"numinlets" : 0,
					"name" : "SoundDB_tagNamedUnit.maxpat",
					"id" : "obj-870",
					"numoutlets" : 0,
					"args" : [ "#1", 43 ]
				}

			}
, 			{
				"box" : 				{
					"maxclass" : "bpatcher",
					"varname" : "44-SoundDB_namedUnit",
					"patching_rect" : [ 0.0, 817.0, 549.0, 18.0 ],
					"numinlets" : 0,
					"name" : "SoundDB_tagNamedUnit.maxpat",
					"id" : "obj-872",
					"numoutlets" : 0,
					"args" : [ "#1", 44 ]
				}

			}
, 			{
				"box" : 				{
					"maxclass" : "bpatcher",
					"varname" : "45-SoundDB_namedUnit",
					"patching_rect" : [ 0.0, 836.0, 549.0, 18.0 ],
					"numinlets" : 0,
					"name" : "SoundDB_tagNamedUnit.maxpat",
					"id" : "obj-874",
					"numoutlets" : 0,
					"args" : [ "#1", 45 ]
				}

			}
, 			{
				"box" : 				{
					"maxclass" : "bpatcher",
					"varname" : "46-SoundDB_namedUnit",
					"patching_rect" : [ 0.0, 855.0, 549.0, 18.0 ],
					"numinlets" : 0,
					"name" : "SoundDB_tagNamedUnit.maxpat",
					"id" : "obj-876",
					"numoutlets" : 0,
					"args" : [ "#1", 46 ]
				}

			}
, 			{
				"box" : 				{
					"maxclass" : "bpatcher",
					"varname" : "47-SoundDB_namedUnit",
					"patching_rect" : [ 0.0, 874.0, 549.0, 18.0 ],
					"numinlets" : 0,
					"name" : "SoundDB_tagNamedUnit.maxpat",
					"id" : "obj-878",
					"numoutlets" : 0,
					"args" : [ "#1", 47 ]
				}

			}
, 			{
				"box" : 				{
					"maxclass" : "bpatcher",
					"varname" : "48-SoundDB_namedUnit",
					"patching_rect" : [ 0.0, 893.0, 549.0, 18.0 ],
					"numinlets" : 0,
					"name" : "SoundDB_tagNamedUnit.maxpat",
					"id" : "obj-880",
					"numoutlets" : 0,
					"args" : [ "#1", 48 ]
				}

			}
, 			{
				"box" : 				{
					"maxclass" : "bpatcher",
					"varname" : "49-SoundDB_namedUnit",
					"patching_rect" : [ 0.0, 912.0, 549.0, 18.0 ],
					"numinlets" : 0,
					"name" : "SoundDB_tagNamedUnit.maxpat",
					"id" : "obj-882",
					"numoutlets" : 0,
					"args" : [ "#1", 49 ]
				}

			}
, 			{
				"box" : 				{
					"maxclass" : "bpatcher",
					"varname" : "50-SoundDB_namedUnit",
					"patching_rect" : [ 0.0, 931.0, 549.0, 18.0 ],
					"numinlets" : 0,
					"name" : "SoundDB_tagNamedUnit.maxpat",
					"id" : "obj-884",
					"numoutlets" : 0,
					"args" : [ "#1", 50 ]
				}

			}
, 			{
				"box" : 				{
					"maxclass" : "bpatcher",
					"varname" : "51-SoundDB_namedUnit",
					"patching_rect" : [ 0.0, 950.0, 549.0, 18.0 ],
					"numinlets" : 0,
					"name" : "SoundDB_tagNamedUnit.maxpat",
					"id" : "obj-886",
					"numoutlets" : 0,
					"args" : [ "#1", 51 ]
				}

			}
, 			{
				"box" : 				{
					"maxclass" : "bpatcher",
					"varname" : "52-SoundDB_namedUnit",
					"patching_rect" : [ 0.0, 969.0, 549.0, 18.0 ],
					"numinlets" : 0,
					"name" : "SoundDB_tagNamedUnit.maxpat",
					"id" : "obj-888",
					"numoutlets" : 0,
					"args" : [ "#1", 52 ]
				}

			}
, 			{
				"box" : 				{
					"maxclass" : "bpatcher",
					"varname" : "53-SoundDB_namedUnit",
					"patching_rect" : [ 0.0, 988.0, 549.0, 18.0 ],
					"numinlets" : 0,
					"name" : "SoundDB_tagNamedUnit.maxpat",
					"id" : "obj-890",
					"numoutlets" : 0,
					"args" : [ "#1", 53 ]
				}

			}
, 			{
				"box" : 				{
					"maxclass" : "bpatcher",
					"varname" : "54-SoundDB_namedUnit",
					"patching_rect" : [ 0.0, 1007.0, 549.0, 18.0 ],
					"numinlets" : 0,
					"name" : "SoundDB_tagNamedUnit.maxpat",
					"id" : "obj-892",
					"numoutlets" : 0,
					"args" : [ "#1", 54 ]
				}

			}
, 			{
				"box" : 				{
					"maxclass" : "bpatcher",
					"varname" : "55-SoundDB_namedUnit",
					"patching_rect" : [ 0.0, 1026.0, 549.0, 18.0 ],
					"numinlets" : 0,
					"name" : "SoundDB_tagNamedUnit.maxpat",
					"id" : "obj-894",
					"numoutlets" : 0,
					"args" : [ "#1", 55 ]
				}

			}
, 			{
				"box" : 				{
					"maxclass" : "bpatcher",
					"varname" : "56-SoundDB_namedUnit",
					"patching_rect" : [ 0.0, 1045.0, 549.0, 18.0 ],
					"numinlets" : 0,
					"name" : "SoundDB_tagNamedUnit.maxpat",
					"id" : "obj-896",
					"numoutlets" : 0,
					"args" : [ "#1", 56 ]
				}

			}
, 			{
				"box" : 				{
					"maxclass" : "bpatcher",
					"varname" : "57-SoundDB_namedUnit",
					"patching_rect" : [ 0.0, 1064.0, 549.0, 18.0 ],
					"numinlets" : 0,
					"name" : "SoundDB_tagNamedUnit.maxpat",
					"id" : "obj-898",
					"numoutlets" : 0,
					"args" : [ "#1", 57 ]
				}

			}
, 			{
				"box" : 				{
					"maxclass" : "bpatcher",
					"varname" : "58-SoundDB_namedUnit",
					"patching_rect" : [ 0.0, 1083.0, 549.0, 18.0 ],
					"numinlets" : 0,
					"name" : "SoundDB_tagNamedUnit.maxpat",
					"id" : "obj-900",
					"numoutlets" : 0,
					"args" : [ "#1", 58 ]
				}

			}
, 			{
				"box" : 				{
					"maxclass" : "bpatcher",
					"varname" : "59-SoundDB_namedUnit",
					"patching_rect" : [ 0.0, 1102.0, 549.0, 18.0 ],
					"numinlets" : 0,
					"name" : "SoundDB_tagNamedUnit.maxpat",
					"id" : "obj-902",
					"numoutlets" : 0,
					"args" : [ "#1", 59 ]
				}

			}
, 			{
				"box" : 				{
					"maxclass" : "bpatcher",
					"varname" : "60-SoundDB_namedUnit",
					"patching_rect" : [ 0.0, 1121.0, 549.0, 18.0 ],
					"numinlets" : 0,
					"name" : "SoundDB_tagNamedUnit.maxpat",
					"id" : "obj-904",
					"numoutlets" : 0,
					"args" : [ "#1", 60 ]
				}

			}
, 			{
				"box" : 				{
					"maxclass" : "bpatcher",
					"varname" : "61-SoundDB_namedUnit",
					"patching_rect" : [ 0.0, 1140.0, 549.0, 18.0 ],
					"numinlets" : 0,
					"name" : "SoundDB_tagNamedUnit.maxpat",
					"id" : "obj-906",
					"numoutlets" : 0,
					"args" : [ "#1", 61 ]
				}

			}
, 			{
				"box" : 				{
					"maxclass" : "bpatcher",
					"varname" : "62-SoundDB_namedUnit",
					"patching_rect" : [ 0.0, 1159.0, 549.0, 18.0 ],
					"numinlets" : 0,
					"name" : "SoundDB_tagNamedUnit.maxpat",
					"id" : "obj-908",
					"numoutlets" : 0,
					"args" : [ "#1", 62 ]
				}

			}
, 			{
				"box" : 				{
					"maxclass" : "bpatcher",
					"varname" : "63-SoundDB_namedUnit",
					"patching_rect" : [ 0.0, 1178.0, 549.0, 18.0 ],
					"numinlets" : 0,
					"name" : "SoundDB_tagNamedUnit.maxpat",
					"id" : "obj-910",
					"numoutlets" : 0,
					"args" : [ "#1", 63 ]
				}

			}
, 			{
				"box" : 				{
					"maxclass" : "bpatcher",
					"varname" : "64-SoundDB_namedUnit",
					"patching_rect" : [ 0.0, 1197.0, 549.0, 18.0 ],
					"numinlets" : 0,
					"name" : "SoundDB_tagNamedUnit.maxpat",
					"id" : "obj-912",
					"numoutlets" : 0,
					"args" : [ "#1", 64 ]
				}

			}
, 			{
				"box" : 				{
					"maxclass" : "bpatcher",
					"varname" : "65-SoundDB_namedUnit",
					"patching_rect" : [ 0.0, 1216.0, 549.0, 18.0 ],
					"numinlets" : 0,
					"name" : "SoundDB_tagNamedUnit.maxpat",
					"id" : "obj-914",
					"numoutlets" : 0,
					"args" : [ "#1", 65 ]
				}

			}
, 			{
				"box" : 				{
					"maxclass" : "bpatcher",
					"varname" : "66-SoundDB_namedUnit",
					"patching_rect" : [ 0.0, 1235.0, 549.0, 18.0 ],
					"numinlets" : 0,
					"name" : "SoundDB_tagNamedUnit.maxpat",
					"id" : "obj-916",
					"numoutlets" : 0,
					"args" : [ "#1", 66 ]
				}

			}
, 			{
				"box" : 				{
					"maxclass" : "bpatcher",
					"varname" : "67-SoundDB_namedUnit",
					"patching_rect" : [ 0.0, 1254.0, 549.0, 18.0 ],
					"numinlets" : 0,
					"name" : "SoundDB_tagNamedUnit.maxpat",
					"id" : "obj-918",
					"numoutlets" : 0,
					"args" : [ "#1", 67 ]
				}

			}
, 			{
				"box" : 				{
					"maxclass" : "bpatcher",
					"varname" : "68-SoundDB_namedUnit",
					"patching_rect" : [ 0.0, 1273.0, 549.0, 18.0 ],
					"numinlets" : 0,
					"name" : "SoundDB_tagNamedUnit.maxpat",
					"id" : "obj-920",
					"numoutlets" : 0,
					"args" : [ "#1", 68 ]
				}

			}
, 			{
				"box" : 				{
					"maxclass" : "bpatcher",
					"varname" : "69-SoundDB_namedUnit",
					"patching_rect" : [ 0.0, 1292.0, 549.0, 18.0 ],
					"numinlets" : 0,
					"name" : "SoundDB_tagNamedUnit.maxpat",
					"id" : "obj-922",
					"numoutlets" : 0,
					"args" : [ "#1", 69 ]
				}

			}
, 			{
				"box" : 				{
					"maxclass" : "bpatcher",
					"varname" : "70-SoundDB_namedUnit",
					"patching_rect" : [ 0.0, 1311.0, 549.0, 18.0 ],
					"numinlets" : 0,
					"name" : "SoundDB_tagNamedUnit.maxpat",
					"id" : "obj-924",
					"numoutlets" : 0,
					"args" : [ "#1", 70 ]
				}

			}
, 			{
				"box" : 				{
					"maxclass" : "bpatcher",
					"varname" : "71-SoundDB_namedUnit",
					"patching_rect" : [ 0.0, 1330.0, 549.0, 18.0 ],
					"numinlets" : 0,
					"name" : "SoundDB_tagNamedUnit.maxpat",
					"id" : "obj-926",
					"numoutlets" : 0,
					"args" : [ "#1", 71 ]
				}

			}
, 			{
				"box" : 				{
					"maxclass" : "bpatcher",
					"varname" : "72-SoundDB_namedUnit",
					"patching_rect" : [ 0.0, 1349.0, 549.0, 18.0 ],
					"numinlets" : 0,
					"name" : "SoundDB_tagNamedUnit.maxpat",
					"id" : "obj-928",
					"numoutlets" : 0,
					"args" : [ "#1", 72 ]
				}

			}
, 			{
				"box" : 				{
					"maxclass" : "bpatcher",
					"varname" : "73-SoundDB_namedUnit",
					"patching_rect" : [ 0.0, 1368.0, 549.0, 18.0 ],
					"numinlets" : 0,
					"name" : "SoundDB_tagNamedUnit.maxpat",
					"id" : "obj-930",
					"numoutlets" : 0,
					"args" : [ "#1", 73 ]
				}

			}
, 			{
				"box" : 				{
					"maxclass" : "bpatcher",
					"varname" : "74-SoundDB_namedUnit",
					"patching_rect" : [ 0.0, 1387.0, 549.0, 18.0 ],
					"numinlets" : 0,
					"name" : "SoundDB_tagNamedUnit.maxpat",
					"id" : "obj-932",
					"numoutlets" : 0,
					"args" : [ "#1", 74 ]
				}

			}
, 			{
				"box" : 				{
					"maxclass" : "bpatcher",
					"varname" : "75-SoundDB_namedUnit",
					"patching_rect" : [ 0.0, 1406.0, 549.0, 18.0 ],
					"numinlets" : 0,
					"name" : "SoundDB_tagNamedUnit.maxpat",
					"id" : "obj-934",
					"numoutlets" : 0,
					"args" : [ "#1", 75 ]
				}

			}
, 			{
				"box" : 				{
					"maxclass" : "bpatcher",
					"varname" : "76-SoundDB_namedUnit",
					"patching_rect" : [ 0.0, 1425.0, 549.0, 18.0 ],
					"numinlets" : 0,
					"name" : "SoundDB_tagNamedUnit.maxpat",
					"id" : "obj-936",
					"numoutlets" : 0,
					"args" : [ "#1", 76 ]
				}

			}
, 			{
				"box" : 				{
					"maxclass" : "bpatcher",
					"varname" : "77-SoundDB_namedUnit",
					"patching_rect" : [ 0.0, 1444.0, 549.0, 18.0 ],
					"numinlets" : 0,
					"name" : "SoundDB_tagNamedUnit.maxpat",
					"id" : "obj-938",
					"numoutlets" : 0,
					"args" : [ "#1", 77 ]
				}

			}
, 			{
				"box" : 				{
					"maxclass" : "bpatcher",
					"varname" : "78-SoundDB_namedUnit",
					"patching_rect" : [ 0.0, 1463.0, 549.0, 18.0 ],
					"numinlets" : 0,
					"name" : "SoundDB_tagNamedUnit.maxpat",
					"id" : "obj-940",
					"numoutlets" : 0,
					"args" : [ "#1", 78 ]
				}

			}
, 			{
				"box" : 				{
					"maxclass" : "bpatcher",
					"varname" : "79-SoundDB_namedUnit",
					"patching_rect" : [ 0.0, 1482.0, 549.0, 18.0 ],
					"numinlets" : 0,
					"name" : "SoundDB_tagNamedUnit.maxpat",
					"id" : "obj-942",
					"numoutlets" : 0,
					"args" : [ "#1", 79 ]
				}

			}
, 			{
				"box" : 				{
					"maxclass" : "bpatcher",
					"varname" : "80-SoundDB_namedUnit",
					"patching_rect" : [ 0.0, 1501.0, 549.0, 18.0 ],
					"numinlets" : 0,
					"name" : "SoundDB_tagNamedUnit.maxpat",
					"id" : "obj-944",
					"numoutlets" : 0,
					"args" : [ "#1", 80 ]
				}

			}
, 			{
				"box" : 				{
					"maxclass" : "bpatcher",
					"varname" : "81-SoundDB_namedUnit",
					"patching_rect" : [ 0.0, 1520.0, 549.0, 18.0 ],
					"numinlets" : 0,
					"name" : "SoundDB_tagNamedUnit.maxpat",
					"id" : "obj-946",
					"numoutlets" : 0,
					"args" : [ "#1", 81 ]
				}

			}
, 			{
				"box" : 				{
					"maxclass" : "bpatcher",
					"varname" : "82-SoundDB_namedUnit",
					"patching_rect" : [ 0.0, 1539.0, 549.0, 18.0 ],
					"numinlets" : 0,
					"name" : "SoundDB_tagNamedUnit.maxpat",
					"id" : "obj-948",
					"numoutlets" : 0,
					"args" : [ "#1", 82 ]
				}

			}
, 			{
				"box" : 				{
					"maxclass" : "bpatcher",
					"varname" : "83-SoundDB_namedUnit",
					"patching_rect" : [ 0.0, 1558.0, 549.0, 18.0 ],
					"numinlets" : 0,
					"name" : "SoundDB_tagNamedUnit.maxpat",
					"id" : "obj-950",
					"numoutlets" : 0,
					"args" : [ "#1", 83 ]
				}

			}
, 			{
				"box" : 				{
					"maxclass" : "bpatcher",
					"varname" : "84-SoundDB_namedUnit",
					"patching_rect" : [ 0.0, 1577.0, 549.0, 18.0 ],
					"numinlets" : 0,
					"name" : "SoundDB_tagNamedUnit.maxpat",
					"id" : "obj-952",
					"numoutlets" : 0,
					"args" : [ "#1", 84 ]
				}

			}
, 			{
				"box" : 				{
					"maxclass" : "bpatcher",
					"varname" : "85-SoundDB_namedUnit",
					"patching_rect" : [ 0.0, 1596.0, 549.0, 18.0 ],
					"numinlets" : 0,
					"name" : "SoundDB_tagNamedUnit.maxpat",
					"id" : "obj-954",
					"numoutlets" : 0,
					"args" : [ "#1", 85 ]
				}

			}
, 			{
				"box" : 				{
					"maxclass" : "bpatcher",
					"varname" : "86-SoundDB_namedUnit",
					"patching_rect" : [ 0.0, 1615.0, 549.0, 18.0 ],
					"numinlets" : 0,
					"name" : "SoundDB_tagNamedUnit.maxpat",
					"id" : "obj-956",
					"numoutlets" : 0,
					"args" : [ "#1", 86 ]
				}

			}
, 			{
				"box" : 				{
					"maxclass" : "bpatcher",
					"varname" : "87-SoundDB_namedUnit",
					"patching_rect" : [ 0.0, 1634.0, 549.0, 18.0 ],
					"numinlets" : 0,
					"name" : "SoundDB_tagNamedUnit.maxpat",
					"id" : "obj-958",
					"numoutlets" : 0,
					"args" : [ "#1", 87 ]
				}

			}
, 			{
				"box" : 				{
					"maxclass" : "bpatcher",
					"varname" : "88-SoundDB_namedUnit",
					"patching_rect" : [ 0.0, 1653.0, 549.0, 18.0 ],
					"numinlets" : 0,
					"name" : "SoundDB_tagNamedUnit.maxpat",
					"id" : "obj-960",
					"numoutlets" : 0,
					"args" : [ "#1", 88 ]
				}

			}
, 			{
				"box" : 				{
					"maxclass" : "bpatcher",
					"varname" : "89-SoundDB_namedUnit",
					"patching_rect" : [ 0.0, 1672.0, 549.0, 18.0 ],
					"numinlets" : 0,
					"name" : "SoundDB_tagNamedUnit.maxpat",
					"id" : "obj-962",
					"numoutlets" : 0,
					"args" : [ "#1", 89 ]
				}

			}
, 			{
				"box" : 				{
					"maxclass" : "bpatcher",
					"varname" : "90-SoundDB_namedUnit",
					"patching_rect" : [ 0.0, 1691.0, 549.0, 18.0 ],
					"numinlets" : 0,
					"name" : "SoundDB_tagNamedUnit.maxpat",
					"id" : "obj-964",
					"numoutlets" : 0,
					"args" : [ "#1", 90 ]
				}

			}
, 			{
				"box" : 				{
					"maxclass" : "bpatcher",
					"varname" : "91-SoundDB_namedUnit",
					"patching_rect" : [ 0.0, 1710.0, 549.0, 18.0 ],
					"numinlets" : 0,
					"name" : "SoundDB_tagNamedUnit.maxpat",
					"id" : "obj-966",
					"numoutlets" : 0,
					"args" : [ "#1", 91 ]
				}

			}
, 			{
				"box" : 				{
					"maxclass" : "bpatcher",
					"varname" : "92-SoundDB_namedUnit",
					"patching_rect" : [ 0.0, 1729.0, 549.0, 18.0 ],
					"numinlets" : 0,
					"name" : "SoundDB_tagNamedUnit.maxpat",
					"id" : "obj-968",
					"numoutlets" : 0,
					"args" : [ "#1", 92 ]
				}

			}
, 			{
				"box" : 				{
					"maxclass" : "bpatcher",
					"varname" : "93-SoundDB_namedUnit",
					"patching_rect" : [ 0.0, 1748.0, 549.0, 18.0 ],
					"numinlets" : 0,
					"name" : "SoundDB_tagNamedUnit.maxpat",
					"id" : "obj-970",
					"numoutlets" : 0,
					"args" : [ "#1", 93 ]
				}

			}
, 			{
				"box" : 				{
					"maxclass" : "bpatcher",
					"varname" : "94-SoundDB_namedUnit",
					"patching_rect" : [ 0.0, 1767.0, 549.0, 18.0 ],
					"numinlets" : 0,
					"name" : "SoundDB_tagNamedUnit.maxpat",
					"id" : "obj-972",
					"numoutlets" : 0,
					"args" : [ "#1", 94 ]
				}

			}
, 			{
				"box" : 				{
					"maxclass" : "bpatcher",
					"varname" : "95-SoundDB_namedUnit",
					"patching_rect" : [ 0.0, 1786.0, 549.0, 18.0 ],
					"numinlets" : 0,
					"name" : "SoundDB_tagNamedUnit.maxpat",
					"id" : "obj-974",
					"numoutlets" : 0,
					"args" : [ "#1", 95 ]
				}

			}
, 			{
				"box" : 				{
					"maxclass" : "bpatcher",
					"varname" : "96-SoundDB_namedUnit",
					"patching_rect" : [ 0.0, 1805.0, 549.0, 18.0 ],
					"numinlets" : 0,
					"name" : "SoundDB_tagNamedUnit.maxpat",
					"id" : "obj-976",
					"numoutlets" : 0,
					"args" : [ "#1", 96 ]
				}

			}
, 			{
				"box" : 				{
					"maxclass" : "bpatcher",
					"varname" : "97-SoundDB_namedUnit",
					"patching_rect" : [ 0.0, 1824.0, 549.0, 18.0 ],
					"numinlets" : 0,
					"name" : "SoundDB_tagNamedUnit.maxpat",
					"id" : "obj-978",
					"numoutlets" : 0,
					"args" : [ "#1", 97 ]
				}

			}
, 			{
				"box" : 				{
					"maxclass" : "bpatcher",
					"varname" : "98-SoundDB_namedUnit",
					"patching_rect" : [ 0.0, 1843.0, 549.0, 18.0 ],
					"numinlets" : 0,
					"name" : "SoundDB_tagNamedUnit.maxpat",
					"id" : "obj-980",
					"numoutlets" : 0,
					"args" : [ "#1", 98 ]
				}

			}
, 			{
				"box" : 				{
					"maxclass" : "bpatcher",
					"varname" : "99-SoundDB_namedUnit",
					"patching_rect" : [ 0.0, 1862.0, 549.0, 18.0 ],
					"numinlets" : 0,
					"name" : "SoundDB_tagNamedUnit.maxpat",
					"id" : "obj-982",
					"numoutlets" : 0,
					"args" : [ "#1", 99 ]
				}

			}
, 			{
				"box" : 				{
					"maxclass" : "bpatcher",
					"varname" : "100-SoundDB_namedUnit",
					"patching_rect" : [ 0.0, 1881.0, 549.0, 18.0 ],
					"numinlets" : 0,
					"name" : "SoundDB_tagNamedUnit.maxpat",
					"id" : "obj-984",
					"numoutlets" : 0,
					"args" : [ "#1", 100 ]
				}

			}
, 			{
				"box" : 				{
					"maxclass" : "bpatcher",
					"varname" : "101-SoundDB_namedUnit",
					"patching_rect" : [ 0.0, 1900.0, 549.0, 18.0 ],
					"numinlets" : 0,
					"name" : "SoundDB_tagNamedUnit.maxpat",
					"id" : "obj-986",
					"numoutlets" : 0,
					"args" : [ "#1", 101 ]
				}

			}
, 			{
				"box" : 				{
					"maxclass" : "bpatcher",
					"varname" : "102-SoundDB_namedUnit",
					"patching_rect" : [ 0.0, 1919.0, 549.0, 18.0 ],
					"numinlets" : 0,
					"name" : "SoundDB_tagNamedUnit.maxpat",
					"id" : "obj-988",
					"numoutlets" : 0,
					"args" : [ "#1", 102 ]
				}

			}
, 			{
				"box" : 				{
					"maxclass" : "bpatcher",
					"varname" : "103-SoundDB_namedUnit",
					"patching_rect" : [ 0.0, 1938.0, 549.0, 18.0 ],
					"numinlets" : 0,
					"name" : "SoundDB_tagNamedUnit.maxpat",
					"id" : "obj-990",
					"numoutlets" : 0,
					"args" : [ "#1", 103 ]
				}

			}
, 			{
				"box" : 				{
					"maxclass" : "bpatcher",
					"varname" : "104-SoundDB_namedUnit",
					"patching_rect" : [ 0.0, 1957.0, 549.0, 18.0 ],
					"numinlets" : 0,
					"name" : "SoundDB_tagNamedUnit.maxpat",
					"id" : "obj-992",
					"numoutlets" : 0,
					"args" : [ "#1", 104 ]
				}

			}
, 			{
				"box" : 				{
					"maxclass" : "bpatcher",
					"varname" : "105-SoundDB_namedUnit",
					"patching_rect" : [ 0.0, 1976.0, 549.0, 18.0 ],
					"numinlets" : 0,
					"name" : "SoundDB_tagNamedUnit.maxpat",
					"id" : "obj-994",
					"numoutlets" : 0,
					"args" : [ "#1", 105 ]
				}

			}
, 			{
				"box" : 				{
					"maxclass" : "bpatcher",
					"varname" : "106-SoundDB_namedUnit",
					"patching_rect" : [ 0.0, 1995.0, 549.0, 18.0 ],
					"numinlets" : 0,
					"name" : "SoundDB_tagNamedUnit.maxpat",
					"id" : "obj-996",
					"numoutlets" : 0,
					"args" : [ "#1", 106 ]
				}

			}
, 			{
				"box" : 				{
					"maxclass" : "bpatcher",
					"varname" : "107-SoundDB_namedUnit",
					"patching_rect" : [ 0.0, 2014.0, 549.0, 18.0 ],
					"numinlets" : 0,
					"name" : "SoundDB_tagNamedUnit.maxpat",
					"id" : "obj-998",
					"numoutlets" : 0,
					"args" : [ "#1", 107 ]
				}

			}
, 			{
				"box" : 				{
					"maxclass" : "bpatcher",
					"varname" : "108-SoundDB_namedUnit",
					"patching_rect" : [ 0.0, 2033.0, 549.0, 18.0 ],
					"numinlets" : 0,
					"name" : "SoundDB_tagNamedUnit.maxpat",
					"id" : "obj-1000",
					"numoutlets" : 0,
					"args" : [ "#1", 108 ]
				}

			}
, 			{
				"box" : 				{
					"maxclass" : "bpatcher",
					"varname" : "109-SoundDB_namedUnit",
					"patching_rect" : [ 0.0, 2052.0, 549.0, 18.0 ],
					"numinlets" : 0,
					"name" : "SoundDB_tagNamedUnit.maxpat",
					"id" : "obj-1002",
					"numoutlets" : 0,
					"args" : [ "#1", 109 ]
				}

			}
, 			{
				"box" : 				{
					"maxclass" : "bpatcher",
					"varname" : "110-SoundDB_namedUnit",
					"patching_rect" : [ 0.0, 2071.0, 549.0, 18.0 ],
					"numinlets" : 0,
					"name" : "SoundDB_tagNamedUnit.maxpat",
					"id" : "obj-1004",
					"numoutlets" : 0,
					"args" : [ "#1", 110 ]
				}

			}
, 			{
				"box" : 				{
					"maxclass" : "bpatcher",
					"varname" : "111-SoundDB_namedUnit",
					"patching_rect" : [ 0.0, 2090.0, 549.0, 18.0 ],
					"numinlets" : 0,
					"name" : "SoundDB_tagNamedUnit.maxpat",
					"id" : "obj-1006",
					"numoutlets" : 0,
					"args" : [ "#1", 111 ]
				}

			}
, 			{
				"box" : 				{
					"maxclass" : "bpatcher",
					"varname" : "112-SoundDB_namedUnit",
					"patching_rect" : [ 0.0, 2109.0, 549.0, 18.0 ],
					"numinlets" : 0,
					"name" : "SoundDB_tagNamedUnit.maxpat",
					"id" : "obj-1008",
					"numoutlets" : 0,
					"args" : [ "#1", 112 ]
				}

			}
, 			{
				"box" : 				{
					"maxclass" : "bpatcher",
					"varname" : "113-SoundDB_namedUnit",
					"patching_rect" : [ 0.0, 2128.0, 549.0, 18.0 ],
					"numinlets" : 0,
					"name" : "SoundDB_tagNamedUnit.maxpat",
					"id" : "obj-1010",
					"numoutlets" : 0,
					"args" : [ "#1", 113 ]
				}

			}
, 			{
				"box" : 				{
					"maxclass" : "bpatcher",
					"varname" : "114-SoundDB_namedUnit",
					"patching_rect" : [ 0.0, 2147.0, 549.0, 18.0 ],
					"numinlets" : 0,
					"name" : "SoundDB_tagNamedUnit.maxpat",
					"id" : "obj-1012",
					"numoutlets" : 0,
					"args" : [ "#1", 114 ]
				}

			}
, 			{
				"box" : 				{
					"maxclass" : "bpatcher",
					"varname" : "115-SoundDB_namedUnit",
					"patching_rect" : [ 0.0, 2166.0, 549.0, 18.0 ],
					"numinlets" : 0,
					"name" : "SoundDB_tagNamedUnit.maxpat",
					"id" : "obj-1014",
					"numoutlets" : 0,
					"args" : [ "#1", 115 ]
				}

			}
, 			{
				"box" : 				{
					"maxclass" : "bpatcher",
					"varname" : "116-SoundDB_namedUnit",
					"patching_rect" : [ 0.0, 2185.0, 549.0, 18.0 ],
					"numinlets" : 0,
					"name" : "SoundDB_tagNamedUnit.maxpat",
					"id" : "obj-1016",
					"numoutlets" : 0,
					"args" : [ "#1", 116 ]
				}

			}
, 			{
				"box" : 				{
					"maxclass" : "bpatcher",
					"varname" : "117-SoundDB_namedUnit",
					"patching_rect" : [ 0.0, 2204.0, 549.0, 18.0 ],
					"numinlets" : 0,
					"name" : "SoundDB_tagNamedUnit.maxpat",
					"id" : "obj-1018",
					"numoutlets" : 0,
					"args" : [ "#1", 117 ]
				}

			}
, 			{
				"box" : 				{
					"maxclass" : "bpatcher",
					"varname" : "118-SoundDB_namedUnit",
					"patching_rect" : [ 0.0, 2223.0, 549.0, 18.0 ],
					"numinlets" : 0,
					"name" : "SoundDB_tagNamedUnit.maxpat",
					"id" : "obj-1020",
					"numoutlets" : 0,
					"args" : [ "#1", 118 ]
				}

			}
, 			{
				"box" : 				{
					"maxclass" : "bpatcher",
					"varname" : "119-SoundDB_namedUnit",
					"patching_rect" : [ 0.0, 2242.0, 549.0, 18.0 ],
					"numinlets" : 0,
					"name" : "SoundDB_tagNamedUnit.maxpat",
					"id" : "obj-1022",
					"numoutlets" : 0,
					"args" : [ "#1", 119 ]
				}

			}
, 			{
				"box" : 				{
					"maxclass" : "bpatcher",
					"varname" : "120-SoundDB_namedUnit",
					"patching_rect" : [ 0.0, 2261.0, 549.0, 18.0 ],
					"numinlets" : 0,
					"name" : "SoundDB_tagNamedUnit.maxpat",
					"id" : "obj-1024",
					"numoutlets" : 0,
					"args" : [ "#1", 120 ]
				}

			}
, 			{
				"box" : 				{
					"maxclass" : "bpatcher",
					"varname" : "121-SoundDB_namedUnit",
					"patching_rect" : [ 0.0, 2280.0, 549.0, 18.0 ],
					"numinlets" : 0,
					"name" : "SoundDB_tagNamedUnit.maxpat",
					"id" : "obj-1026",
					"numoutlets" : 0,
					"args" : [ "#1", 121 ]
				}

			}
, 			{
				"box" : 				{
					"maxclass" : "bpatcher",
					"varname" : "122-SoundDB_namedUnit",
					"patching_rect" : [ 0.0, 2299.0, 549.0, 18.0 ],
					"numinlets" : 0,
					"name" : "SoundDB_tagNamedUnit.maxpat",
					"id" : "obj-1028",
					"numoutlets" : 0,
					"args" : [ "#1", 122 ]
				}

			}
, 			{
				"box" : 				{
					"maxclass" : "bpatcher",
					"varname" : "123-SoundDB_namedUnit",
					"patching_rect" : [ 0.0, 2318.0, 549.0, 18.0 ],
					"numinlets" : 0,
					"name" : "SoundDB_tagNamedUnit.maxpat",
					"id" : "obj-1030",
					"numoutlets" : 0,
					"args" : [ "#1", 123 ]
				}

			}
, 			{
				"box" : 				{
					"maxclass" : "bpatcher",
					"varname" : "124-SoundDB_namedUnit",
					"patching_rect" : [ 0.0, 2337.0, 549.0, 18.0 ],
					"numinlets" : 0,
					"name" : "SoundDB_tagNamedUnit.maxpat",
					"id" : "obj-1032",
					"numoutlets" : 0,
					"args" : [ "#1", 124 ]
				}

			}
, 			{
				"box" : 				{
					"maxclass" : "bpatcher",
					"varname" : "125-SoundDB_namedUnit",
					"patching_rect" : [ 0.0, 2356.0, 549.0, 18.0 ],
					"numinlets" : 0,
					"name" : "SoundDB_tagNamedUnit.maxpat",
					"id" : "obj-1034",
					"numoutlets" : 0,
					"args" : [ "#1", 125 ]
				}

			}
, 			{
				"box" : 				{
					"maxclass" : "bpatcher",
					"varname" : "126-SoundDB_namedUnit",
					"patching_rect" : [ 0.0, 2375.0, 549.0, 18.0 ],
					"numinlets" : 0,
					"name" : "SoundDB_tagNamedUnit.maxpat",
					"id" : "obj-1036",
					"numoutlets" : 0,
					"args" : [ "#1", 126 ]
				}

			}
, 			{
				"box" : 				{
					"maxclass" : "bpatcher",
					"varname" : "127-SoundDB_namedUnit",
					"patching_rect" : [ 0.0, 2394.0, 549.0, 18.0 ],
					"numinlets" : 0,
					"name" : "SoundDB_tagNamedUnit.maxpat",
					"id" : "obj-1038",
					"numoutlets" : 0,
					"args" : [ "#1", 127 ]
				}

			}
, 			{
				"box" : 				{
					"maxclass" : "bpatcher",
					"varname" : "128-SoundDB_namedUnit",
					"patching_rect" : [ 0.0, 2413.0, 549.0, 18.0 ],
					"numinlets" : 0,
					"name" : "SoundDB_tagNamedUnit.maxpat",
					"id" : "obj-1040",
					"numoutlets" : 0,
					"args" : [ "#1", 128 ]
				}

			}
, 			{
				"box" : 				{
					"maxclass" : "outlet",
					"patching_rect" : [ 778.0, 438.0, 139.0, 139.0 ],
					"numinlets" : 1,
					"id" : "obj-66",
					"numoutlets" : 0,
					"comment" : ""
				}

			}
, 			{
				"box" : 				{
					"maxclass" : "message",
					"text" : "set $1",
					"patching_rect" : [ 773.0, 390.0, 35.0, 15.0 ],
					"numinlets" : 2,
					"id" : "obj-53",
					"fontname" : "Arial",
					"numoutlets" : 1,
					"outlettype" : [ "" ],
					"fontsize" : 9.0
				}

			}
, 			{
				"box" : 				{
					"maxclass" : "newobj",
					"text" : "i",
					"patching_rect" : [ 763.0, 343.0, 32.5, 17.0 ],
					"numinlets" : 2,
					"id" : "obj-17",
					"fontname" : "Arial",
					"numoutlets" : 1,
					"outlettype" : [ "int" ],
					"fontsize" : 9.0
				}

			}
, 			{
				"box" : 				{
					"maxclass" : "newobj",
					"text" : "sel 0 1 2 3",
					"patching_rect" : [ 594.0, 137.0, 73.0, 17.0 ],
					"numinlets" : 1,
					"id" : "obj-2",
					"fontname" : "Arial",
					"numoutlets" : 5,
					"outlettype" : [ "bang", "bang", "bang", "bang", "" ],
					"fontsize" : 9.0
				}

			}
, 			{
				"box" : 				{
					"maxclass" : "newobj",
					"text" : "pvar down4",
					"patching_rect" : [ 669.0, 55.0, 57.0, 17.0 ],
					"numinlets" : 1,
					"id" : "obj-59",
					"fontname" : "Arial",
					"numoutlets" : 1,
					"outlettype" : [ "" ],
					"fontsize" : 9.0
				}

			}
, 			{
				"box" : 				{
					"maxclass" : "newobj",
					"text" : "pvar up4",
					"patching_rect" : [ 751.0, 125.0, 46.0, 17.0 ],
					"numinlets" : 1,
					"id" : "obj-60",
					"fontname" : "Arial",
					"numoutlets" : 1,
					"outlettype" : [ "" ],
					"fontsize" : 9.0
				}

			}
, 			{
				"box" : 				{
					"maxclass" : "newobj",
					"text" : "pvar down3",
					"patching_rect" : [ 781.0, 106.0, 57.0, 17.0 ],
					"numinlets" : 1,
					"id" : "obj-62",
					"fontname" : "Arial",
					"numoutlets" : 1,
					"outlettype" : [ "" ],
					"fontsize" : 9.0
				}

			}
, 			{
				"box" : 				{
					"maxclass" : "newobj",
					"text" : "pvar up3",
					"patching_rect" : [ 733.0, 106.0, 46.0, 17.0 ],
					"numinlets" : 1,
					"id" : "obj-63",
					"fontname" : "Arial",
					"numoutlets" : 1,
					"outlettype" : [ "" ],
					"fontsize" : 9.0
				}

			}
, 			{
				"box" : 				{
					"maxclass" : "newobj",
					"text" : "pvar down2",
					"patching_rect" : [ 761.0, 87.0, 57.0, 17.0 ],
					"numinlets" : 1,
					"id" : "obj-55",
					"fontname" : "Arial",
					"numoutlets" : 1,
					"outlettype" : [ "" ],
					"fontsize" : 9.0
				}

			}
, 			{
				"box" : 				{
					"maxclass" : "newobj",
					"text" : "pvar up2",
					"patching_rect" : [ 713.0, 87.0, 46.0, 17.0 ],
					"numinlets" : 1,
					"id" : "obj-57",
					"fontname" : "Arial",
					"numoutlets" : 1,
					"outlettype" : [ "" ],
					"fontsize" : 9.0
				}

			}
, 			{
				"box" : 				{
					"maxclass" : "newobj",
					"text" : "pvar down1",
					"patching_rect" : [ 743.0, 68.0, 57.0, 17.0 ],
					"numinlets" : 1,
					"id" : "obj-51",
					"fontname" : "Arial",
					"numoutlets" : 1,
					"outlettype" : [ "" ],
					"fontsize" : 9.0
				}

			}
, 			{
				"box" : 				{
					"maxclass" : "newobj",
					"text" : "pvar up1",
					"patching_rect" : [ 814.0, 153.0, 46.0, 17.0 ],
					"numinlets" : 1,
					"id" : "obj-49",
					"fontname" : "Arial",
					"numoutlets" : 1,
					"outlettype" : [ "" ],
					"fontsize" : 9.0
				}

			}
, 			{
				"box" : 				{
					"maxclass" : "inlet",
					"patching_rect" : [ 594.0, 108.0, 25.0, 25.0 ],
					"numinlets" : 0,
					"id" : "obj-15",
					"numoutlets" : 1,
					"outlettype" : [ "" ],
					"comment" : ""
				}

			}
, 			{
				"box" : 				{
					"maxclass" : "newobj",
					"text" : "t 3",
					"patching_rect" : [ 716.0, 266.0, 21.0, 17.0 ],
					"numinlets" : 1,
					"id" : "obj-11",
					"fontname" : "Arial",
					"numoutlets" : 1,
					"outlettype" : [ "int" ],
					"fontsize" : 9.0
				}

			}
, 			{
				"box" : 				{
					"maxclass" : "newobj",
					"text" : "t 2",
					"patching_rect" : [ 693.0, 266.0, 21.0, 17.0 ],
					"numinlets" : 1,
					"id" : "obj-13",
					"fontname" : "Arial",
					"numoutlets" : 1,
					"outlettype" : [ "int" ],
					"fontsize" : 9.0
				}

			}
, 			{
				"box" : 				{
					"maxclass" : "newobj",
					"text" : "t 1",
					"patching_rect" : [ 669.0, 266.0, 21.0, 17.0 ],
					"numinlets" : 1,
					"id" : "obj-9",
					"fontname" : "Arial",
					"numoutlets" : 1,
					"outlettype" : [ "int" ],
					"fontsize" : 9.0
				}

			}
, 			{
				"box" : 				{
					"maxclass" : "newobj",
					"text" : "t 0",
					"patching_rect" : [ 646.0, 266.0, 21.0, 17.0 ],
					"numinlets" : 1,
					"id" : "obj-7",
					"fontname" : "Arial",
					"numoutlets" : 1,
					"outlettype" : [ "int" ],
					"fontsize" : 9.0
				}

			}
, 			{
				"box" : 				{
					"maxclass" : "newobj",
					"text" : "* -608.",
					"patching_rect" : [ 646.0, 329.0, 37.0, 17.0 ],
					"numinlets" : 2,
					"id" : "obj-5",
					"fontname" : "Arial",
					"numoutlets" : 1,
					"outlettype" : [ "float" ],
					"fontsize" : 9.0
				}

			}
, 			{
				"box" : 				{
					"maxclass" : "message",
					"text" : "offset 0 $1",
					"patching_rect" : [ 646.0, 348.0, 53.0, 15.0 ],
					"numinlets" : 2,
					"id" : "obj-3",
					"fontname" : "Arial",
					"numoutlets" : 1,
					"outlettype" : [ "" ],
					"fontsize" : 9.0
				}

			}
, 			{
				"box" : 				{
					"maxclass" : "newobj",
					"text" : "thispatcher",
					"patching_rect" : [ 646.0, 365.0, 55.0, 17.0 ],
					"numinlets" : 1,
					"id" : "obj-1",
					"fontname" : "Arial",
					"numoutlets" : 2,
					"outlettype" : [ "", "" ],
					"fontsize" : 9.0,
					"save" : [ "#N", "thispatcher", ";", "#Q", "end", ";" ]
				}

			}
 ],
		"lines" : [ 			{
				"patchline" : 				{
					"source" : [ "obj-11", 0 ],
					"destination" : [ "obj-17", 0 ],
					"hidden" : 0,
					"midpoints" : [  ]
				}

			}
, 			{
				"patchline" : 				{
					"source" : [ "obj-11", 0 ],
					"destination" : [ "obj-5", 0 ],
					"hidden" : 0,
					"midpoints" : [  ]
				}

			}
, 			{
				"patchline" : 				{
					"source" : [ "obj-13", 0 ],
					"destination" : [ "obj-17", 0 ],
					"hidden" : 0,
					"midpoints" : [  ]
				}

			}
, 			{
				"patchline" : 				{
					"source" : [ "obj-13", 0 ],
					"destination" : [ "obj-5", 0 ],
					"hidden" : 0,
					"midpoints" : [  ]
				}

			}
, 			{
				"patchline" : 				{
					"source" : [ "obj-15", 0 ],
					"destination" : [ "obj-2", 0 ],
					"hidden" : 0,
					"midpoints" : [  ]
				}

			}
, 			{
				"patchline" : 				{
					"source" : [ "obj-17", 0 ],
					"destination" : [ "obj-53", 0 ],
					"hidden" : 0,
					"midpoints" : [  ]
				}

			}
, 			{
				"patchline" : 				{
					"source" : [ "obj-2", 3 ],
					"destination" : [ "obj-11", 0 ],
					"hidden" : 0,
					"midpoints" : [  ]
				}

			}
, 			{
				"patchline" : 				{
					"source" : [ "obj-2", 2 ],
					"destination" : [ "obj-13", 0 ],
					"hidden" : 0,
					"midpoints" : [  ]
				}

			}
, 			{
				"patchline" : 				{
					"source" : [ "obj-2", 0 ],
					"destination" : [ "obj-7", 0 ],
					"hidden" : 0,
					"midpoints" : [  ]
				}

			}
, 			{
				"patchline" : 				{
					"source" : [ "obj-2", 1 ],
					"destination" : [ "obj-9", 0 ],
					"hidden" : 0,
					"midpoints" : [  ]
				}

			}
, 			{
				"patchline" : 				{
					"source" : [ "obj-3", 0 ],
					"destination" : [ "obj-1", 0 ],
					"hidden" : 0,
					"midpoints" : [  ]
				}

			}
, 			{
				"patchline" : 				{
					"source" : [ "obj-49", 0 ],
					"destination" : [ "obj-11", 0 ],
					"hidden" : 0,
					"midpoints" : [  ]
				}

			}
, 			{
				"patchline" : 				{
					"source" : [ "obj-5", 0 ],
					"destination" : [ "obj-3", 0 ],
					"hidden" : 0,
					"midpoints" : [  ]
				}

			}
, 			{
				"patchline" : 				{
					"source" : [ "obj-51", 0 ],
					"destination" : [ "obj-9", 0 ],
					"hidden" : 0,
					"midpoints" : [  ]
				}

			}
, 			{
				"patchline" : 				{
					"source" : [ "obj-53", 0 ],
					"destination" : [ "obj-66", 0 ],
					"hidden" : 0,
					"midpoints" : [  ]
				}

			}
, 			{
				"patchline" : 				{
					"source" : [ "obj-55", 0 ],
					"destination" : [ "obj-13", 0 ],
					"hidden" : 0,
					"midpoints" : [  ]
				}

			}
, 			{
				"patchline" : 				{
					"source" : [ "obj-57", 0 ],
					"destination" : [ "obj-7", 0 ],
					"hidden" : 0,
					"midpoints" : [  ]
				}

			}
, 			{
				"patchline" : 				{
					"source" : [ "obj-59", 0 ],
					"destination" : [ "obj-7", 0 ],
					"hidden" : 0,
					"midpoints" : [  ]
				}

			}
, 			{
				"patchline" : 				{
					"source" : [ "obj-60", 0 ],
					"destination" : [ "obj-13", 0 ],
					"hidden" : 0,
					"midpoints" : [  ]
				}

			}
, 			{
				"patchline" : 				{
					"source" : [ "obj-62", 0 ],
					"destination" : [ "obj-11", 0 ],
					"hidden" : 0,
					"midpoints" : [  ]
				}

			}
, 			{
				"patchline" : 				{
					"source" : [ "obj-63", 0 ],
					"destination" : [ "obj-9", 0 ],
					"hidden" : 0,
					"midpoints" : [  ]
				}

			}
, 			{
				"patchline" : 				{
					"source" : [ "obj-7", 0 ],
					"destination" : [ "obj-17", 0 ],
					"hidden" : 0,
					"midpoints" : [  ]
				}

			}
, 			{
				"patchline" : 				{
					"source" : [ "obj-7", 0 ],
					"destination" : [ "obj-5", 0 ],
					"hidden" : 0,
					"midpoints" : [  ]
				}

			}
, 			{
				"patchline" : 				{
					"source" : [ "obj-9", 0 ],
					"destination" : [ "obj-17", 0 ],
					"hidden" : 0,
					"midpoints" : [  ]
				}

			}
, 			{
				"patchline" : 				{
					"source" : [ "obj-9", 0 ],
					"destination" : [ "obj-5", 0 ],
					"hidden" : 0,
					"midpoints" : [  ]
				}

			}
 ]
	}

}
